:FULLY-SPECIFIED
:FORCE-ALL-JOINTS-BE-3DOF
:DEGREES
612
root -7.40779 14.8372 -40.7474 73.058 -87.4688 -70.7631
lfemur -28.4388 11.0057 -7.65607
ltibia 51.8014 -0 0
lfoot -4.58419 11.3072 -2.24759
ltoes -11.0656 0 0
rfemur -32.1697 -17.0139 15.1865
rtibia 61.7607 -0 0
rfoot -18.3991 -12.361 1.10004
rtoes -11.9399 0 0
lowerback 14.0907 2.39681 -1.43229
upperback -1.08812 3.14807 2.48974
thorax -9.32397 1.6237 2.80546
lowerneck -1.99489 -4.70712 -8.14041
upperneck 3.10953 -6.32443 7.10007
head 1.97246 -3.12108 3.54237
lclavicle -1.69735e-14 -3.29615e-14 -6.86147e-30
lhumerus -7.22321 -25.9256 89.5614
lradius 67.0525 -0 0
lwrist 22.1997 0 0
lhand -12.3627 59.388 -0.310786
lfingers 7.12502 -0 0
lthumb 10.8264 175.338 -27.0573
rclavicle -1.69735e-14 -3.29615e-14 -6.86147e-30
rhumerus 10.3847 26.5576 -61.6137
rradius 81.747 -0 0
rwrist -19.6491 0 0
rhand 4.95823 -16.927 2.31663
rfingers 7.12502 -0 0
rthumb 29.9329 -40.7422 3.57145
613
root -7.40669 14.8509 -40.7116 80.6512 -87.3203 -78.3847
lfemur -29.279 11.0317 -7.64622
ltibia 51.9927 -0 0
lfoot -4.17746 10.9207 -2.24114
ltoes -10.93 0 0
rfemur -31.465 -17.0278 15.3762
rtibia 61.4723 -0 0
rfoot -18.5777 -12.7986 1.09676
rtoes -12.1041 0 0
lowerback 14.1216 2.39272 -1.348
upperback -1.09899 3.15989 2.52903
thorax -9.35201 1.62618 2.79667
lowerneck -2.05541 -4.59406 -8.0616
upperneck 3.18915 -6.17485 7.09524
head 1.99513 -3.04521 3.53542
lclavicle -1.7526e-14 -3.38215e-14 -6.83213e-30
lhumerus -5.75802 -25.7523 89.2097
lradius 66.2771 -0 0
lwrist 21.2115 0 0
lhand -13.063 59.4035 -0.315634
lfingers 7.12502 -0 0
lthumb 9.68855 177.594 -26.9262
rclavicle -1.7526e-14 -3.38215e-14 -6.83213e-30
rhumerus 10.0463 26.856 -62.0675
rradius 83.0035 -0 0
rwrist -20.5862 0 0
rhand 5.6398 -16.6964 2.30873
rfingers 7.12502 -0 0
rthumb 30.5837 -40.3642 3.5594
614
root -7.40557 14.8646 -40.6757 87.3323 -87.1303 -85.0946
lfemur -30.118 11.0577 -7.63648
ltibia 52.1838 -0 0
lfoot -3.77102 10.5346 -2.23197
ltoes -10.795 0 0
rfemur -30.7608 -17.0441 15.5654
rtibia 61.1841 -0 0
rfoot -18.7558 -13.2354 1.09219
rtoes -12.2676 0 0
lowerback 14.1527 2.38859 -1.26402
upperback -1.10979 3.17167 2.56826
thorax -9.38006 1.62863 2.78799
lowerneck -2.11584 -4.4811 -7.98309
upperneck 3.26898 -6.02552 7.09078
head 2.01788 -2.96947 3.52854
lclavicle -1.80773e-14 -3.46782e-14 -6.79419e-30
lhumerus -4.29828 -25.5699 88.8644
lradius 65.5023 -0 0
lwrist 20.2236 0 0
lhand -13.7664 59.4283 -0.322472
lfingers 7.12502 -0 0
lthumb 8.55917 179.838 -26.7529
rclavicle -1.80773e-14 -3.46782e-14 -6.79419e-30
rhumerus 9.70373 27.1513 -62.5246
rradius 84.259 -0 0
rwrist -21.523 0 0
rhand 6.31999 -16.4658 2.29792
rfingers 7.12502 -0 0
rthumb 31.233 -39.9864 3.5429
615
root -7.40442 14.8783 -40.64 93.1031 -86.9065 -90.8942
lfemur -30.9555 11.0837 -7.62685
ltibia 52.3745 -0 0
lfoot -3.36507 10.1493 -2.22009
ltoes -10.6606 0 0
rfemur -30.0577 -17.0628 15.754
rtibia 60.8962 -0 0
rfoot -18.9333 -13.6711 1.08634
rtoes -12.4302 0 0
lowerback 14.1838 2.38443 -1.18037
upperback -1.12052 3.18341 2.6074
thorax -9.4081 1.63108 2.77941
lowerneck -2.17613 -4.36829 -7.90491
upperneck 3.34898 -5.8765 7.08668
head 2.04071 -2.89388 3.52172
lclavicle -1.8627e-14 -3.55312e-14 -6.74774e-30
lhumerus -2.84476 -25.3788 88.526
lradius 64.7284 -0 0
lwrist 19.2365 0 0
lhand -14.4726 59.4629 -0.331246
lfingers 7.12502 -0 0
lthumb 7.44107 -177.931 -26.5383
rclavicle -1.8627e-14 -3.55312e-14 -6.74774e-30
rhumerus 9.35725 27.4436 -62.9848
rradius 85.5129 -0 0
rwrist -22.459 0 0
rhand 6.99847 -16.2354 2.2842
rfingers 7.12502 -0 0
rthumb 31.8807 -39.6093 3.52198
616
root -7.40326 14.892 -40.6043 98.0393 -86.6562 -95.8596
lfemur -31.7911 11.1097 -7.61734
ltibia 52.5649 -0 0
lfoot -2.95981 9.76487 -2.20552
ltoes -10.5267 0 0
rfemur -29.3558 -17.0838 15.9417
rtibia 60.6086 -0 0
rfoot -19.1102 -14.1056 1.07921
rtoes -12.5919 0 0
lowerback 14.2151 2.38023 -1.0971
upperback -1.13116 3.1951 2.64644
thorax -9.43612 1.63351 2.77095
lowerneck -2.23626 -4.25567 -7.8271
upperneck 3.42909 -5.72785 7.08294
head 2.06359 -2.81848 3.51496
lclavicle -1.91748e-14 -3.638e-14 -6.69289e-30
lhumerus -1.39821 -25.1791 88.1948
lradius 63.9557 -0 0
lwrist 18.2503 0 0
lhand -15.181 59.5078 -0.341886
lfingers 7.12502 -0 0
lthumb 6.33697 -175.718 -26.2833
rclavicle -1.91748e-14 -3.638e-14 -6.69289e-30
rhumerus 9.00698 27.7325 -63.4478
rradius 86.7645 -0 0
rwrist -23.3939 0 0
rhand 7.67493 -16.0053 2.26761
rfingers 7.12502 -0 0
rthumb 32.5263 -39.2329 3.49668
617
root -7.40207 14.9056 -40.5687 102.248 -86.3853 -100.098
lfemur -32.6243 11.1356 -7.60796
ltibia 52.7547 -0 0
lfoot -2.55544 9.38158 -2.18829
ltoes -10.3936 0 0
rfemur -28.6555 -17.1071 16.1286
rtibia 60.3216 -0 0
rfoot -19.2863 -14.5387 1.07083
rtoes -12.7527 0 0
lowerback 14.2464 2.37601 -1.01423
upperback -1.14173 3.20675 2.68536
thorax -9.4641 1.63592 2.7626
lowerneck -2.29619 -4.1433 -7.74968
upperneck 3.50927 -5.57964 7.07956
head 2.08652 -2.7433 3.50827
lclavicle -1.97205e-14 -3.7224e-14 -6.62976e-30
lhumerus 0.0406178 -24.9712 87.8712
lradius 63.1845 -0 0
lwrist 17.2656 0 0
lhand -15.8915 59.5635 -0.354311
lfingers 7.12502 -0 0
lthumb 5.2494 -173.524 -25.9889
rclavicle -1.97205e-14 -3.7224e-14 -6.62976e-30
rhumerus 8.65309 28.0179 -63.9134
rradius 88.0133 -0 0
rwrist -24.3269 0 0
rhand 8.34904 -15.7758 2.24819
rfingers 7.12502 -0 0
rthumb 33.1696 -38.8577 3.46706
618
root -7.40088 14.9192 -40.5333 105.84 -86.0984 -103.719
lfemur -33.4549 11.1615 -7.59869
ltibia 52.9438 -0 0
lfoot -2.15216 8.99963 -2.16844
ltoes -10.2612 0 0
rfemur -27.9572 -17.1326 16.3145
rtibia 60.0354 -0 0
rfoot -19.4616 -14.9702 1.0612
rtoes -12.9125 0 0
lowerback 14.2778 2.37176 -0.931787
upperback -1.15222 3.21834 2.72414
thorax -9.49204 1.63832 2.75435
lowerneck -2.35591 -4.03123 -7.6727
upperneck 3.58947 -5.43194 7.07654
head 2.10947 -2.66837 3.50165
lclavicle -2.02638e-14 -3.80628e-14 -6.55848e-30
lhumerus 1.47101 -24.7554 87.5556
lradius 62.4152 -0 0
lwrist 16.2826 0 0
lhand -16.6034 59.6306 -0.368429
lfingers 7.12502 -0 0
lthumb 4.18077 -171.352 -25.6564
rclavicle -2.02638e-14 -3.80628e-14 -6.55848e-30
rhumerus 8.29578 28.2999 -64.3813
rradius 89.2585 -0 0
rwrist -25.2578 0 0
rhand 9.02049 -15.5469 2.22596
rfingers 7.12502 -0 0
rthumb 33.8101 -38.4839 3.43318
619
root -7.39967 14.9328 -40.4979 108.918 -85.7994 -106.826
lfemur -34.2823 11.1874 -7.58954
ltibia 53.1321 -0 0
lfoot -1.75017 8.6192 -2.146
ltoes -10.1295 0 0
rfemur -27.2612 -17.1602 16.4993
rtibia 59.7499 -0 0
rfoot -19.636 -15.3998 1.05034
rtoes -13.0713 0 0
lowerback 14.3091 2.36749 -0.849817
upperback -1.16261 3.22987 2.76277
thorax -9.5199 1.6407 2.74622
lowerneck -2.41539 -3.91949 -7.59617
upperneck 3.66965 -5.2848 7.07387
head 2.13243 -2.59372 3.4951
lclavicle -2.08045e-14 -3.88959e-14 -6.47923e-30
lhumerus 2.89226 -24.5321 87.2483
lradius 61.6481 -0 0
lwrist 15.3017 0 0
lhand -17.3166 59.7096 -0.384133
lfingers 7.12502 -0 0
lthumb 3.13327 -169.204 -25.2872
rclavicle -2.08045e-14 -3.88959e-14 -6.47923e-30
rhumerus 7.93522 28.5781 -64.8514
rradius 90.4997 -0 0
rwrist -26.186 0 0
rhand 9.68896 -15.3188 2.201
rfingers 7.12502 -0 0
rthumb 34.4477 -38.1116 3.39511
620
root -7.39845 14.9463 -40.4627 111.567 -85.491 -109.505
lfemur -35.1062 11.2132 -7.58052
ltibia 53.3196 -0 0
lfoot -1.34965 8.24051 -2.12102
ltoes -9.99857 0 0
rfemur -26.5678 -17.19 16.6829
rtibia 59.4655 -0 0
rfoot -19.8094 -15.8275 1.03829
rtoes -13.2291 0 0
lowerback 14.3405 2.3632 -0.768348
upperback -1.17293 3.24135 2.80123
thorax -9.54769 1.64307 2.7382
lowerneck -2.47459 -3.80816 -7.52014
upperneck 3.74976 -5.13829 7.07155
head 2.15538 -2.51939 3.48862
lclavicle -2.13421e-14 -3.97228e-14 -6.39216e-30
lhumerus 4.3037 -24.3015 86.9495
lradius 60.8835 -0 0
lwrist 14.3233 0 0
lhand -18.0305 59.8009 -0.401303
lfingers 7.12502 -0 0
lthumb 2.1089 -167.081 -24.8827
rclavicle -2.13421e-14 -3.97228e-14 -6.39216e-30
rhumerus 7.57162 28.8525 -65.3234
rradius 91.7362 -0 0
rwrist -27.1109 0 0
rhand 10.3541 -15.0918 2.17333
rfingers 7.12502 -0 0
rthumb 35.082 -37.7413 3.35293
621
root -7.39723 14.9597 -40.4276 113.861 -85.1757 -111.828
lfemur -35.9262 11.2389 -7.57161
ltibia 53.506 -0 0
lfoot -0.950824 7.86375 -2.09354
ltoes -9.86851 0 0
rfemur -25.8774 -17.2219 16.8651
rtibia 59.1822 -0 0
rfoot -19.9818 -16.2529 1.02505
rtoes -13.3857 0 0
lowerback 14.3718 2.3589 -0.687411
upperback -1.18315 3.25276 2.83949
thorax -9.57537 1.64542 2.73029
lowerneck -2.53349 -3.69726 -7.44463
upperneck 3.82975 -4.99248 7.06957
head 2.17832 -2.44541 3.48221
lclavicle -2.18766e-14 -4.05428e-14 -6.29748e-30
lhumerus 5.70464 -24.0641 86.6596
lradius 60.1217 -0 0
lwrist 13.3477 0 0
lhand -18.7449 59.9051 -0.41981
lfingers 7.12502 -0 0
lthumb 1.10947 -164.986 -24.4446
rclavicle -2.18766e-14 -4.05428e-14 -6.29748e-30
rhumerus 7.20518 29.1229 -65.797
rradius 92.9674 -0 0
rwrist -28.0322 0 0
rhand 11.0157 -14.866 2.14303
rfingers 7.12502 -0 0
rthumb 35.7126 -37.373 3.30673
622
root -7.39601 14.9731 -40.3928 115.859 -84.8551 -113.856
lfemur -36.7419 11.2645 -7.56283
ltibia 53.6913 -0 0
lfoot -0.55387 7.48913 -2.06361
ltoes -9.73932 0 0
rfemur -25.1903 -17.2557 17.0459
rtibia 58.9002 -0 0
rfoot -20.153 -16.6759 1.01065
rtoes -13.5412 0 0
lowerback 14.403 2.35458 -0.607039
upperback -1.19328 3.26412 2.87755
thorax -9.60294 1.64775 2.7225
lowerneck -2.59206 -3.58687 -7.36967
upperneck 3.90957 -4.84743 7.06793
head 2.20121 -2.3718 3.47587
lclavicle -2.24075e-14 -4.13557e-14 -6.19538e-30
lhumerus 7.09444 -23.8203 86.3788
lradius 59.363 -0 0
lwrist 12.3753 0 0
lhand -19.4592 60.0227 -0.439512
lfingers 7.12502 -0 0
lthumb 0.136578 -162.92 -23.9746
rclavicle -2.24075e-14 -4.13557e-14 -6.19538e-30
rhumerus 6.83612 29.3894 -66.2719
rradius 94.1927 -0 0
rwrist -28.9493 0 0
rhand 11.6733 -14.6415 2.11016
rfingers 7.12502 -0 0
rthumb 36.3393 -37.0072 3.25661
623
root -7.39479 14.9864 -40.3581 117.611 -84.5308 -115.637
lfemur -37.5528 11.29 -7.55415
ltibia 53.8754 -0 0
lfoot -0.158988 7.11684 -2.0313
ltoes -9.61106 0 0
rfemur -24.5069 -17.2914 17.2251
rtibia 58.6196 -0 0
rfoot -20.323 -17.0964 0.995121
rtoes -13.6954 0 0
lowerback 14.4342 2.35026 -0.527266
upperback -1.20331 3.2754 2.91538
thorax -9.63039 1.65007 2.71481
lowerneck -2.65029 -3.47701 -7.29529
upperneck 3.98918 -4.7032 7.06662
head 2.22406 -2.29861 3.46962
lclavicle -2.29347e-14 -4.21608e-14 -6.0861e-30
lhumerus 8.47248 -23.5703 86.1074
lradius 58.6077 -0 0
lwrist 11.4063 0 0
lhand -20.1732 60.1542 -0.460257
lfingers 7.12502 -0 0
lthumb -0.808375 -160.885 -23.4743
rclavicle -2.29347e-14 -4.21608e-14 -6.0861e-30
rhumerus 6.46466 29.6517 -66.748
rradius 95.4114 -0 0
rwrist -29.8618 0 0
rhand 12.3267 -14.4185 2.07478
rfingers 7.12502 -0 0
rthumb 36.9617 -36.644 3.20267
624
root -7.39357 14.9996 -40.3236 119.155 -84.2038 -117.211
lfemur -38.3587 11.3154 -7.5456
ltibia 54.0581 -0 0
lfoot 0.233629 6.74709 -1.99666
ltoes -9.48376 0 0
rfemur -23.8275 -17.329 17.4028
rtibia 58.3406 -0 0
rfoot -20.4916 -17.514 0.978492
rtoes -13.8484 0 0
lowerback 14.4653 2.34594 -0.448123
upperback -1.21325 3.28661 2.95297
thorax -9.65769 1.65238 2.70724
lowerneck -2.70813 -3.36776 -7.22153
upperneck 4.06853 -4.55986 7.06564
head 2.24683 -2.22587 3.46344
lclavicle -2.34578e-14 -4.29576e-14 -5.96986e-30
lhumerus 9.83814 -23.3147 85.8454
lradius 57.8563 -0 0
lwrist 10.4413 0 0
lhand -20.8865 60.3001 -0.481881
lfingers 7.12502 -0 0
lthumb -1.7242 -158.881 -22.9457
rclavicle -2.34578e-14 -4.29576e-14 -5.96986e-30
rhumerus 6.09102 29.9097 -67.2248
rradius 96.623 -0 0
rwrist -30.769 0 0
rhand 12.9756 -14.1972 2.03698
rfingers 7.12502 -0 0
rthumb 37.5796 -36.2836 3.14503
